<svg id="visual" viewBox="0 0 540 960" width="540" height="960" xmlns="http://www.w3.org/2000/svg" xmlns:xlink="http://www.w3.org/1999/xlink" version="1.1"><rect x="0" y="0" width="540" height="960" fill="#ffffff"></rect><path d="M0 103L6 108C12 113 24 123 36 122.8C48 122.7 60 112.3 72 103.7C84 95 96 88 108 89.5C120 91 132 101 144 98.2C156 95.3 168 79.7 180 77.7C192 75.7 204 87.3 216 91.2C228 95 240 91 252 88.7C264 86.3 276 85.7 288 92.3C300 99 312 113 324 120.2C336 127.3 348 127.7 360 120.5C372 113.3 384 98.7 396 94.5C408 90.3 420 96.7 432 97.3C444 98 456 93 468 86.8C480 80.7 492 73.3 504 76.7C516 80 528 94 534 101L540 108L540 0L534 0C528 0 516 0 504 0C492 0 480 0 468 0C456 0 444 0 432 0C420 0 408 0 396 0C384 0 372 0 360 0C348 0 336 0 324 0C312 0 300 0 288 0C276 0 264 0 252 0C240 0 228 0 216 0C204 0 192 0 180 0C168 0 156 0 144 0C132 0 120 0 108 0C96 0 84 0 72 0C60 0 48 0 36 0C24 0 12 0 6 0L0 0Z" fill="#7900F1" stroke-linecap="round" stroke-linejoin="miter"></path></svg>