<svg id="visual" viewBox="0 0 960 540" width="960" height="540" xmlns="http://www.w3.org/2000/svg" xmlns:xlink="http://www.w3.org/1999/xlink" version="1.1"><rect x="0" y="0" width="960" height="540" fill="#ffffff"></rect><path d="M0 107L7.3 114C14.7 121 29.3 135 43.8 134.7C58.3 134.3 72.7 119.7 87.2 117.3C101.7 115 116.3 125 131 135.2C145.7 145.3 160.3 155.7 174.8 158.7C189.3 161.7 203.7 157.3 218.2 150.5C232.7 143.7 247.3 134.3 261.8 128C276.3 121.7 290.7 118.3 305.2 120.2C319.7 122 334.3 129 349 132C363.7 135 378.3 134 392.8 130.3C407.3 126.7 421.7 120.3 436.2 124.3C450.7 128.3 465.3 142.7 480 141.8C494.7 141 509.3 125 523.8 114.7C538.3 104.3 552.7 99.7 567.2 103.5C581.7 107.3 596.3 119.7 611 125.7C625.7 131.7 640.3 131.3 654.8 133C669.3 134.7 683.7 138.3 698.2 134.2C712.7 130 727.3 118 741.8 118.3C756.3 118.7 770.7 131.3 785.2 141.8C799.7 152.3 814.3 160.7 829 157.8C843.7 155 858.3 141 872.8 133.2C887.3 125.3 901.7 123.7 916.2 120.2C930.7 116.7 945.3 111.3 952.7 108.7L960 106L960 0L952.7 0C945.3 0 930.7 0 916.2 0C901.7 0 887.3 0 872.8 0C858.3 0 843.7 0 829 0C814.3 0 799.7 0 785.2 0C770.7 0 756.3 0 741.8 0C727.3 0 712.7 0 698.2 0C683.7 0 669.3 0 654.8 0C640.3 0 625.7 0 611 0C596.3 0 581.7 0 567.2 0C552.7 0 538.3 0 523.8 0C509.3 0 494.7 0 480 0C465.3 0 450.7 0 436.2 0C421.7 0 407.3 0 392.8 0C378.3 0 363.7 0 349 0C334.3 0 319.7 0 305.2 0C290.7 0 276.3 0 261.8 0C247.3 0 232.7 0 218.2 0C203.7 0 189.3 0 174.8 0C160.3 0 145.7 0 131 0C116.3 0 101.7 0 87.2 0C72.7 0 58.3 0 43.8 0C29.3 0 14.7 0 7.3 0L0 0Z" fill="#7900F1" stroke-linecap="round" stroke-linejoin="miter"></path></svg>