<svg id="visual" viewBox="0 0 960 540" width="960" height="540" xmlns="http://www.w3.org/2000/svg" xmlns:xlink="http://www.w3.org/1999/xlink" version="1.1"><path d="M0 39L32 41.7C64 44.3 128 49.7 192 44.2C256 38.7 320 22.3 384 15.2C448 8 512 10 576 11.8C640 13.7 704 15.3 768 19.8C832 24.3 896 31.7 928 35.3L960 39L960 0L928 0C896 0 832 0 768 0C704 0 640 0 576 0C512 0 448 0 384 0C320 0 256 0 192 0C128 0 64 0 32 0L0 0Z" fill="#4b03ba"></path><path d="M0 44L32 51.2C64 58.3 128 72.7 192 67.3C256 62 320 37 384 26.3C448 15.7 512 19.3 576 27.3C640 35.3 704 47.7 768 51.2C832 54.7 896 49.3 928 46.7L960 44L960 37L928 33.3C896 29.7 832 22.3 768 17.8C704 13.3 640 11.7 576 9.8C512 8 448 6 384 13.2C320 20.3 256 36.7 192 42.2C128 47.7 64 42.3 32 39.7L0 37Z" fill="#5003c6"></path><path d="M0 44L32 58.5C64 73 128 102 192 97.5C256 93 320 55 384 43.2C448 31.3 512 45.7 576 55.7C640 65.7 704 71.3 768 74.2C832 77 896 77 928 77L960 77L960 42L928 44.7C896 47.3 832 52.7 768 49.2C704 45.7 640 33.3 576 25.3C512 17.3 448 13.7 384 24.3C320 35 256 60 192 65.3C128 70.7 64 56.3 32 49.2L0 42Z" fill="#5502d3"></path><path d="M0 206L32 215C64 224 128 242 192 237.5C256 233 320 206 384 189C448 172 512 165 576 152.5C640 140 704 122 768 117.5C832 113 896 122 928 126.5L960 131L960 75L928 75C896 75 832 75 768 72.2C704 69.3 640 63.7 576 53.7C512 43.7 448 29.3 384 41.2C320 53 256 91 192 95.5C128 100 64 71 32 56.5L0 42Z" fill="#5a02df"></path><path d="M0 260L32 272.7C64 285.3 128 310.7 192 306.2C256 301.7 320 267.3 384 262.8C448 258.3 512 283.7 576 295.3C640 307 704 305 768 290.5C832 276 896 249 928 235.5L960 222L960 129L928 124.5C896 120 832 111 768 115.5C704 120 640 138 576 150.5C512 163 448 170 384 187C320 204 256 231 192 235.5C128 240 64 222 32 213L0 204Z" fill="#5f01ec"></path><path d="M0 320L32 331.7C64 343.3 128 366.7 192 357.7C256 348.7 320 307.3 384 301C448 294.7 512 323.3 576 333.2C640 343 704 334 768 318.7C832 303.3 896 281.7 928 270.8L960 260L960 220L928 233.5C896 247 832 274 768 288.5C704 303 640 305 576 293.3C512 281.7 448 256.3 384 260.8C320 265.3 256 299.7 192 304.2C128 308.7 64 283.3 32 270.7L0 258Z" fill="#6400f9"></path><path d="M0 406L32 404.2C64 402.3 128 398.7 192 391.5C256 384.3 320 373.7 384 375.5C448 377.3 512 391.7 576 396.2C640 400.7 704 395.3 768 384.5C832 373.7 896 357.3 928 349.2L960 341L960 258L928 268.8C896 279.7 832 301.3 768 316.7C704 332 640 341 576 331.2C512 321.3 448 292.7 384 299C320 305.3 256 346.7 192 355.7C128 364.7 64 341.3 32 329.7L0 318Z" fill="#6d16ff"></path><path d="M0 422L32 422C64 422 128 422 192 412.2C256 402.3 320 382.7 384 384.5C448 386.3 512 409.7 576 415C640 420.3 704 407.7 768 394.2C832 380.7 896 366.3 928 359.2L960 352L960 339L928 347.2C896 355.3 832 371.7 768 382.5C704 393.3 640 398.7 576 394.2C512 389.7 448 375.3 384 373.5C320 371.7 256 382.3 192 389.5C128 396.7 64 400.3 32 402.2L0 404Z" fill="#792dff"></path><path d="M0 460L32 458.2C64 456.3 128 452.7 192 440C256 427.3 320 405.7 384 409.3C448 413 512 442 576 443.8C640 445.7 704 420.3 768 406.8C832 393.3 896 391.7 928 390.8L960 390L960 350L928 357.2C896 364.3 832 378.7 768 392.2C704 405.7 640 418.3 576 413C512 407.7 448 384.3 384 382.5C320 380.7 256 400.3 192 410.2C128 420 64 420 32 420L0 420Z" fill="#833eff"></path><path d="M0 498L32 491.7C64 485.3 128 472.7 192 458.2C256 443.7 320 427.3 384 431.8C448 436.3 512 461.7 576 464.5C640 467.3 704 447.7 768 437.8C832 428 896 428 928 428L960 428L960 388L928 388.8C896 389.7 832 391.3 768 404.8C704 418.3 640 443.7 576 441.8C512 440 448 411 384 407.3C320 403.7 256 425.3 192 438C128 450.7 64 454.3 32 456.2L0 458Z" fill="#8e4cff"></path><path d="M0 536L32 528.7C64 521.3 128 506.7 192 501.2C256 495.7 320 499.3 384 502.2C448 505 512 507 576 505.2C640 503.3 704 497.7 768 491.3C832 485 896 478 928 474.5L960 471L960 426L928 426C896 426 832 426 768 435.8C704 445.7 640 465.3 576 462.5C512 459.7 448 434.3 384 429.8C320 425.3 256 441.7 192 456.2C128 470.7 64 483.3 32 489.7L0 496Z" fill="#975aff"></path><path d="M0 541L32 541C64 541 128 541 192 541C256 541 320 541 384 541C448 541 512 541 576 541C640 541 704 541 768 541C832 541 896 541 928 541L960 541L960 469L928 472.5C896 476 832 483 768 489.3C704 495.7 640 501.3 576 503.2C512 505 448 503 384 500.2C320 497.3 256 493.7 192 499.2C128 504.7 64 519.3 32 526.7L0 534Z" fill="#a067ff"></path></svg>