<svg id="visual" viewBox="0 0 600 900" width="600" height="900" xmlns="http://www.w3.org/2000/svg" xmlns:xlink="http://www.w3.org/1999/xlink" version="1.1"><rect x="0" y="0" width="600" height="900" fill="#ffffff"></rect><path d="M0 158L5.3 160.5C10.7 163 21.3 168 31.8 178.5C42.3 189 52.7 205 63.2 216.2C73.7 227.3 84.3 233.7 94.8 223C105.3 212.3 115.7 184.7 126.2 184.8C136.7 185 147.3 213 157.8 209C168.3 205 178.7 169 189.2 158.2C199.7 147.3 210.3 161.7 221 173.5C231.7 185.3 242.3 194.7 252.8 203C263.3 211.3 273.7 218.7 284.2 218.5C294.7 218.3 305.3 210.7 315.8 192.8C326.3 175 336.7 147 347.2 133.2C357.7 119.3 368.3 119.7 379 133.3C389.7 147 400.3 174 410.8 175.2C421.3 176.3 431.7 151.7 442.2 149.7C452.7 147.7 463.3 168.3 473.8 181.2C484.3 194 494.7 199 505.2 202.8C515.7 206.7 526.3 209.3 536.8 207.3C547.3 205.3 557.7 198.7 568.2 185.2C578.7 171.7 589.3 151.3 594.7 141.2L600 131L600 0L594.7 0C589.3 0 578.7 0 568.2 0C557.7 0 547.3 0 536.8 0C526.3 0 515.7 0 505.2 0C494.7 0 484.3 0 473.8 0C463.3 0 452.7 0 442.2 0C431.7 0 421.3 0 410.8 0C400.3 0 389.7 0 379 0C368.3 0 357.7 0 347.2 0C336.7 0 326.3 0 315.8 0C305.3 0 294.7 0 284.2 0C273.7 0 263.3 0 252.8 0C242.3 0 231.7 0 221 0C210.3 0 199.7 0 189.2 0C178.7 0 168.3 0 157.8 0C147.3 0 136.7 0 126.2 0C115.7 0 105.3 0 94.8 0C84.3 0 73.7 0 63.2 0C52.7 0 42.3 0 31.8 0C21.3 0 10.7 0 5.3 0L0 0Z" fill="#7900F1" stroke-linecap="round" stroke-linejoin="miter"></path></svg>